<!-- Generated by IcoMoon.io -->
<svg version="1.1" xmlns="http://www.w3.org/2000/svg" width="40" height="40" viewBox="0 0 40 40">
<title>magnifying-glass</title>
<path d="M35.090 30.934l-7.558-7.558c1.14-1.87 1.796-4.070 1.796-6.42 0-6.834-5.922-12.754-12.756-12.754-6.834-0.002-12.372 5.538-12.372 12.372 0 6.832 5.922 12.754 12.754 12.754 2.274 0 4.4-0.618 6.23-1.688l7.598 7.602c0.744 0.742 1.95 0.742 2.692 0l1.886-1.886c0.742-0.742 0.472-1.68-0.27-2.422zM8.008 16.574c0-4.732 3.834-8.566 8.564-8.566 4.732 0 8.948 4.214 8.948 8.948 0 4.73-3.836 8.566-8.566 8.566-4.732-0.002-8.946-4.218-8.946-8.948z"></path>
</svg>
