<!-- Generated by IcoMoon.io -->
<svg version="1.1" xmlns="http://www.w3.org/2000/svg" width="40" height="40" viewBox="0 0 40 40">
<title>shopping-cart</title>
<path d="M26 34c0 2.208 1.788 4 4 4 2.208 0 4-1.792 4-4 0-2.212-1.792-4-4-4-2.212 0-4 1.788-4 4zM6 34c0 2.208 1.79 4 4 4 2.206 0 4-1.792 4-4 0-2.212-1.794-4-4-4-2.21 0-4 1.788-4 4zM13.094 24.344l22.136-6.324c0.422-0.122 0.77-0.578 0.77-1.020v-11h-28v-3.2c0-0.44-0.362-0.8-0.798-0.8h-6.404c-0.438 0-0.798 0.36-0.798 0.8v3.2h4l3.82 17.914 0.18 1.886v3.298c0 0.438 0.36 0.8 0.8 0.8h26.4c0.44 0 0.8-0.364 0.8-0.8v-3.098h-22.496c-2.3 0-2.348-1.102-0.41-1.656z"></path>
</svg>
