<svg aria-hidden="true" style="position: absolute; width: 0; height: 0; overflow: hidden;" version="1.1" xmlns="http://www.w3.org/2000/svg" xmlns:xlink="http://www.w3.org/1999/xlink">
<defs>
<symbol id="icon-chevron-thin-down" viewBox="0 0 40 40">
<title>chevron-thin-down</title>
<path d="M34.836 12.218c0.544-0.536 1.418-0.536 1.958 0s0.542 1.402 0 1.938l-15.816 15.66c-0.54 0.536-1.414 0.536-1.958 0l-15.816-15.66c-0.54-0.536-0.54-1.402 0-1.938 0.542-0.536 1.418-0.536 1.958 0l14.838 14.282 14.836-14.282z"></path>
</symbol>
<symbol id="icon-home" viewBox="0 0 40 40">
<title>home</title>
<path d="M37.344 22h-3.344v12c0 0.89-0.388 2-2 2h-8v-12h-8v12h-8c-1.612 0-2-1.11-2-2v-12h-3.344c-1.196 0-0.94-0.648-0.12-1.496l16.048-16.064c0.39-0.404 0.902-0.604 1.416-0.624 0.514 0.020 1.026 0.218 1.416 0.624l16.046 16.062c0.822 0.85 1.078 1.498-0.118 1.498z"></path>
</symbol>
<symbol id="icon-magnifying-glass" viewBox="0 0 40 40">
<title>magnifying-glass</title>
<path d="M35.090 30.934l-7.558-7.558c1.14-1.87 1.796-4.070 1.796-6.42 0-6.834-5.922-12.754-12.756-12.754-6.834-0.002-12.372 5.538-12.372 12.372 0 6.832 5.922 12.754 12.754 12.754 2.274 0 4.4-0.618 6.23-1.688l7.598 7.602c0.744 0.742 1.95 0.742 2.692 0l1.886-1.886c0.742-0.742 0.472-1.68-0.27-2.422zM8.008 16.574c0-4.732 3.834-8.566 8.564-8.566 4.732 0 8.948 4.214 8.948 8.948 0 4.73-3.836 8.566-8.566 8.566-4.732-0.002-8.946-4.218-8.946-8.948z"></path>
</symbol>
<symbol id="icon-shopping-cart" viewBox="0 0 40 40">
<title>shopping-cart</title>
<path d="M26 34c0 2.208 1.788 4 4 4 2.208 0 4-1.792 4-4 0-2.212-1.792-4-4-4-2.212 0-4 1.788-4 4zM6 34c0 2.208 1.79 4 4 4 2.206 0 4-1.792 4-4 0-2.212-1.794-4-4-4-2.21 0-4 1.788-4 4zM13.094 24.344l22.136-6.324c0.422-0.122 0.77-0.578 0.77-1.020v-11h-28v-3.2c0-0.44-0.362-0.8-0.798-0.8h-6.404c-0.438 0-0.798 0.36-0.798 0.8v3.2h4l3.82 17.914 0.18 1.886v3.298c0 0.438 0.36 0.8 0.8 0.8h26.4c0.44 0 0.8-0.364 0.8-0.8v-3.098h-22.496c-2.3 0-2.348-1.102-0.41-1.656z"></path>
</symbol>
<symbol id="icon-star" viewBox="0 0 40 40">
<title>star</title>
<path d="M20 2.6l4.776 13.444h12.824l-10.464 7.896 3.742 13.856-10.878-8.308-10.876 8.308 3.74-13.856-10.466-7.896h12.824l4.778-13.444z"></path>
</symbol>
</defs>
</svg>
